<?xml version="1.0" standalone="no"?>
<!DOCTYPE svg PUBLIC "-//W3C//DTD SVG 1.1//EN" "http://www.w3.org/Graphics/SVG/1.1/DTD/svg11.dtd" >
<svg xmlns="http://www.w3.org/2000/svg">
<metadata>Generated by IcoMoon</metadata>
<defs>
<font id="user-interface" horiz-adv-x="1024">
<font-face units-per-em="1024" ascent="960" descent="-64" />
<missing-glyph horiz-adv-x="1024" />
<glyph unicode="&#x20;" horiz-adv-x="512" d="" />
<glyph unicode="&#xe900;" glyph-name="add-image" d="M594.365 130.449h-424.515c-93.607 0-169.85 76.132-169.85 169.85v339.59c0 93.607 76.132 169.85 169.85 169.85h551.958c93.607 0 169.85-76.132 169.85-169.85v-127.332c0-23.485-19.033-42.407-42.407-42.407s-42.407 19.033-42.407 42.407v127.332c0 46.859-38.066 84.925-84.925 84.925h-551.958c-46.859 0-84.925-38.066-84.925-84.925v-339.59c0-46.859 38.066-84.925 84.925-84.925h424.515c23.485 0 42.407-19.033 42.407-42.407s-19.033-42.407-42.407-42.407l-0.111-0.111zM169.85 257.782c-13.69 0-27.158 6.677-35.395 18.921-13.023 19.478-7.791 45.859 11.798 58.881l127.332 84.925c14.247 9.461 32.835 9.461 47.082 0l98.393-65.558 145.141 145.252c16.584 16.584 43.409 16.584 59.993 0l42.407-42.407c16.584-16.584 16.584-43.41 0-59.994s-43.409-16.584-59.993 0l-12.466 12.466-139.798-139.797c-14.358-14.358-36.73-16.473-53.537-5.343l-103.847 69.231-103.847-69.231c-7.235-4.786-15.471-7.123-23.485-7.123l0.223-0.223zM169.85 576.223c0 35.172 28.494 63.666 63.666 63.666s63.666-28.494 63.666-63.666c0-35.172-28.494-63.666-63.666-63.666s-63.666 28.494-63.666 63.666zM976.473 215.374h-254.776c-23.485 0-42.407 19.033-42.407 42.407s19.033 42.407 42.407 42.407h254.776c23.485 0 42.407-19.033 42.407-42.407s-19.033-42.407-42.407-42.407zM849.141 87.93c-23.485 0-42.407 19.034-42.407 42.408v254.775c0 23.485 19.033 42.407 42.407 42.407s42.407-19.033 42.407-42.407v-254.775c0-23.485-19.033-42.408-42.407-42.408z" />
<glyph unicode="&#xe901;" glyph-name="add" d="M756.108-48.145h-504.072c-138.9 0-252.036 112.97-252.036 252.036v504.072c0 138.9 112.97 252.036 252.036 252.036h504.072c138.901 0 252.036-112.97 252.036-252.036v-504.072c0-138.901-112.97-252.036-252.036-252.036zM252.036 833.817c-69.533 0-126.018-56.485-126.018-126.018v-504.072c0-69.533 56.485-126.018 126.018-126.018h504.072c69.533 0 126.018 56.485 126.018 126.018v504.072c0 69.533-56.485 126.018-126.018 126.018h-504.072zM693.182 392.836h-378.053c-34.849 0-62.928 28.243-62.928 62.926s28.244 62.926 62.928 62.926h378.053c34.849 0 62.926-28.243 62.926-62.926s-28.243-62.926-62.926-62.926zM504.072 203.892c-34.849 0-62.925 28.243-62.925 62.926v378.054c0 34.849 28.241 62.926 62.925 62.926s62.928-28.243 62.928-62.926v-378.054c0-34.849-28.244-62.926-62.928-62.926z" />
<glyph unicode="&#xe902;" glyph-name="align" d="M792.487 735.61h-735.944c-31.314 0-56.543 25.377-56.543 56.543s25.377 56.543 56.543 56.543h735.944c31.314 0 56.543-25.377 56.543-56.543s-25.377-56.543-56.543-56.543v0zM962.412 396.058h-905.72c-31.314 0-56.543 25.377-56.543 56.543s25.377 56.543 56.543 56.543h905.72c31.314 0 56.543-25.377 56.543-56.543s-25.377-56.543-56.543-56.543zM792.487 56.357h-735.944c-31.314 0-56.543 25.377-56.543 56.543s25.377 56.543 56.543 56.543h735.944c31.314 0 56.543-25.377 56.543-56.543s-25.377-56.543-56.543-56.543v0z" />
<glyph unicode="&#xe903;" glyph-name="arrow-down" d="M905.507 67.339h-792.043c-40.515 0-77.024 20.925-97.652 55.801-20.628 35.024-21.071 77.023-1.333 112.64l3.859 6.085 394.316 537.229c20.48 33.837 57.28 54.762 96.905 54.762s76.579-20.777 96.91-54.762l398.173-543.314c19.738-35.469 19.144-77.616-1.336-112.64-20.628-35.024-57.135-55.801-97.65-55.801h-0.148zM113.761 180.573h791.449l-395.653 539.9-4.007-6.084-391.79-533.816z" />
<glyph unicode="&#xe904;" glyph-name="arrow-up" d="M509.636 67.488c-39.773 0-76.576 20.777-97.056 54.762l-398.174 543.314c-19.738 35.469-19.145 77.616 1.484 112.491 20.628 35.024 57.137 55.801 97.652 55.801h792.041c40.515 0 77.023-20.925 97.651-55.801 20.628-35.024 21.074-77.022 1.484-112.491l-3.859-6.085-394.314-537.229c-20.48-33.837-57.285-54.762-97.057-54.762h0.148zM113.839 720.621l395.649-539.9 4.155 6.085 391.643 533.668-791.447 0.148z" />
<glyph unicode="&#xe905;" glyph-name="bag" d="M602.073-52.622h-236.911c-67.382 0-193.929 28.572-284.698 220.477-93.171 196.709-4.803 415.542-1.011 424.77 7.459 18.078 25.031 29.834 44.627 29.834h767.368c20.733 0 39.064-13.273 45.764-32.868 3.413-10.114 82.931-251.071-2.528-422.622-86.218-173.448-249.553-219.591-332.484-219.591h-0.126zM158.466 526.001c-17.825-59.291-47.787-196.834 9.102-316.933 50.441-106.572 120.604-165.232 197.468-165.232h236.909c56.51 0 180.782 34.765 246.141 166.116 48.040 96.458 26.548 239.692 6.953 316.049h-696.573zM722.93 670.752c-26.675 0-48.166 21.619-48.166 48.167 0 79.771-64.853 144.623-144.624 144.623h-48.166c-79.771 0-144.624-64.852-144.624-144.623 0-26.675-21.618-48.167-48.166-48.167s-48.166 21.619-48.166 48.167c0 132.993 108.215 241.081 241.082 241.081h48.166c132.994 0 241.082-108.215 241.082-241.081 0-26.675-21.617-48.167-48.165-48.167h-0.254zM288.931 188.588c-26.675 0-48.166 21.617-48.166 48.165v144.625c0 26.675 21.618 48.165 48.166 48.165s48.166-21.617 48.166-48.165v-144.625c0-26.675-21.618-48.165-48.166-48.165zM722.93 188.588c-26.675 0-48.166 21.617-48.166 48.165v144.625c0 26.675 21.618 48.165 48.166 48.165s48.166-21.617 48.166-48.165v-144.625c0-26.675-21.618-48.165-48.166-48.165zM433.682 188.588c-26.675 0-48.166 21.617-48.166 48.165v144.625c0 26.675 21.618 48.165 48.166 48.165s48.166-21.617 48.166-48.165v-144.625c0-26.675-21.618-48.165-48.166-48.165zM578.306 188.588c-26.675 0-48.166 21.617-48.166 48.165v144.625c0 26.675 21.618 48.165 48.166 48.165s48.166-21.617 48.166-48.165v-144.625c0-26.675-21.618-48.165-48.166-48.165z" />
<glyph unicode="&#xe906;" glyph-name="bookmark" d="M218.111-50.397c-13.751 0-27.502 2.926-40.375 9.070-36.864 17.262-60.707 56.321-60.707 99.622v678.619c0 123.026 89.38 223.086 199.241 223.086h382.682c109.861 0 199.241-100.059 199.241-223.086v-677.889c0-43.447-23.843-82.65-60.853-99.912-33.938-15.945-73.435-10.68-102.839 13.749l-227.037 189.149-227.473-189.586c-17.993-15.067-39.937-22.822-62.027-22.822h0.146zM316.27 848.53c-47.543 0-87.625-51.054-87.625-111.616v-662.089l243.273 202.752c20.773 17.262 50.761 17.262 71.387 0l243.127-202.606v661.943c0.146 60.416-39.937 111.616-87.48 111.616h-382.682z" />
<glyph unicode="&#xe907;" glyph-name="box" d="M792.635-58.954h-566.168c-124.809 0-226.467 101.51-226.467 226.467v566.020c0 124.809 101.51 226.467 226.467 226.467h566.168c124.809 0 226.467-101.51 226.467-226.467v-566.020c0-124.809-101.51-226.467-226.467-226.467v0zM226.616 846.766c-62.479 0-113.234-50.755-113.234-113.234v-566.020c0-62.479 50.755-113.234 113.234-113.234h566.020c62.479 0 113.234 50.755 113.234 113.234v566.020c0 62.479-50.755 113.234-113.234 113.234h-566.020zM679.402 563.757h-339.701c-31.314 0-56.543 25.377-56.543 56.543s25.377 56.543 56.543 56.543h339.701c31.314 0 56.543-25.377 56.543-56.543s-25.377-56.543-56.543-56.543zM735.944 393.98h-452.786c-31.314 0-56.543 25.377-56.543 56.543s25.377 56.543 56.543 56.543h452.786c31.314 0 56.543-25.377 56.543-56.543s-25.377-56.543-56.543-56.543zM679.402 224.056h-339.701c-31.314 0-56.543 25.377-56.543 56.543s25.377 56.543 56.543 56.543h339.701c31.314 0 56.543-25.377 56.543-56.543s-25.377-56.543-56.543-56.543z" />
<glyph unicode="&#xe908;" glyph-name="calendar" d="M267.644 610.998c-29.598 0-53.446 23.988-53.446 53.446v214.058c0 29.598 23.988 53.444 53.446 53.444s53.443-23.986 53.443-53.444v-214.058c0-29.598-23.985-53.446-53.443-53.446zM749.063 610.998c-29.598 0-53.444 23.988-53.444 53.446v214.058c0 29.598 23.987 53.444 53.444 53.444s53.444-23.986 53.444-53.444v-214.058c0-29.598-23.987-53.446-53.444-53.446zM321.087 450.526h-53.443c-29.598 0-53.446 23.985-53.446 53.443s23.988 53.444 53.446 53.444h53.443c29.598 0 53.446-23.987 53.446-53.444s-23.988-53.443-53.446-53.443zM535.145 450.526h-53.444c-29.598 0-53.444 23.985-53.444 53.443s23.987 53.444 53.444 53.444h53.444c29.598 0 53.444-23.987 53.444-53.444s-23.987-53.443-53.444-53.443zM749.063 450.526h-53.444c-29.598 0-53.444 23.985-53.444 53.443s23.987 53.444 53.444 53.444h53.444c29.598 0 53.444-23.987 53.444-53.444s-23.987-53.443-53.444-53.443zM321.087 289.913h-53.443c-29.598 0-53.446 23.985-53.446 53.443s23.988 53.446 53.446 53.446h53.443c29.598 0 53.446-23.988 53.446-53.446s-23.988-53.443-53.446-53.443zM535.145 289.913h-53.444c-29.598 0-53.444 23.985-53.444 53.443s23.987 53.446 53.444 53.446h53.444c29.598 0 53.444-23.988 53.444-53.446s-23.987-53.443-53.444-53.443zM749.063 289.913h-53.444c-29.598 0-53.444 23.985-53.444 53.443s23.987 53.446 53.444 53.446h53.444c29.598 0 53.444-23.988 53.444-53.446s-23.987-53.443-53.444-53.443zM321.087 129.438h-53.443c-29.598 0-53.446 23.988-53.446 53.446s23.988 53.443 53.446 53.443h53.443c29.598 0 53.446-23.985 53.446-53.443s-23.988-53.446-53.446-53.446zM535.145 129.438h-53.444c-29.598 0-53.444 23.988-53.444 53.446s23.987 53.443 53.444 53.443h53.444c29.598 0 53.444-23.985 53.444-53.443s-23.987-53.446-53.444-53.446zM749.063 129.438h-53.444c-29.598 0-53.444 23.988-53.444 53.446s23.987 53.443 53.444 53.443h53.444c29.598 0 53.444-23.985 53.444-53.443s-23.987-53.446-53.444-53.446zM802.648-31.034h-588.59c-117.97 0-214.058 95.947-214.058 214.058v538.091c0 57.372 46.571 103.942 103.943 103.942h808.258c57.653 0 104.504-46.85 104.504-104.503v-537.53c0-117.97-95.947-214.058-214.058-214.058zM909.677 720.554l-805.733-2.526 3.086-535.004c0-59.055 47.974-107.029 107.029-107.029h588.59c59.055 0 107.029 47.974 107.029 107.029v537.53z" />
<glyph unicode="&#xe909;" glyph-name="call" d="M708.923-55.345c-71.436 0-142.872 27.185-197.242 81.554l-413.013 447.634c-107.398 107.398-107.398 284.404 1.341 393.143l65.706 65.707c17.554 17.554 40.96 27.307 65.707 27.307 24.869 0 48.152-9.752 65.707-27.307l65.707-65.707c72.533-72.533 72.533-190.537 0-263.070l-1.585-1.585 283.307-311.589c72.533 70.827 189.318 70.461 261.486-1.585l65.707-65.707c17.554-17.554 27.185-40.959 27.185-65.827s-9.752-48.154-27.307-65.708l-65.707-65.707c-54.37-54.37-125.806-81.554-197.364-81.554h0.366zM231.543 867.109l-65.707-65.707c-72.533-72.533-72.533-190.537 0-263.070l413.013-447.636c71.192-71.192 189.318-71.069 261.73 1.342l65.707 65.829-65.707 65.707c-35.109 35.109-96.427 35.109-131.535 0l-32.914-32.914c-9.021-9.021-22.065-13.166-34.011-13.653-12.678 0.366-24.747 5.851-33.28 15.238l-345.966 380.465c-16.701 18.408-15.97 46.69 1.585 64.244l32.914 32.914c36.206 36.206 36.206 95.208 0 131.535l-65.829 65.707zM766.705 460.069c-25.722 0-46.446 20.846-46.446 46.446 0 64.122-52.175 116.297-116.297 116.297-25.722 0-46.446 20.846-46.446 46.446s20.846 46.446 46.446 46.446c115.444 0 209.189-93.867 209.189-209.189 0-25.722-20.846-46.446-46.446-46.446v0zM952.732 460.069c-25.722 0-46.446 20.846-46.446 46.446 0 166.644-135.558 302.202-302.202 302.202-25.722 0-46.446 20.846-46.446 46.446s20.846 46.445 46.446 46.445c217.966 0 395.215-177.371 395.215-395.215 0-25.722-20.846-46.446-46.446-46.446l-0.122 0.122z" />
<glyph unicode="&#xe90a;" glyph-name="cart" d="M821.728 301.606h-438.17c-49.177 0-89.759 37.927-93.931 86.093l-132.741 444.364h-108.72c-26.675 0-48.167 21.619-48.167 48.167s21.619 48.165 48.167 48.165h144.623c21.365 0 40.075-14.032 46.143-34.386l144.625-484.313c1.391-4.425 2.021-9.103 2.021-13.781l436.148 2.149c0 4.425-1.516 6.828-0.252 11.126l79.012 278.25h-370.157c-26.675 0-48.167 21.617-48.167 48.165s21.619 48.167 48.167 48.167h433.998c15.17 0 29.331-7.081 38.433-19.217s12.010-27.685 7.964-42.223l-94.941-334.382c-4.045-48.419-44.627-86.471-94.058-86.471v0.126zM405.676 40.542c37.669 37.669 37.669 98.744 0 136.413s-98.743 37.669-136.412 0c-37.669-37.669-37.669-98.744 0-136.413s98.743-37.669 136.412 0zM961.095 87.697c12.236 51.847-19.874 103.798-71.722 116.036-51.849 12.237-103.799-19.873-116.037-71.722-12.237-51.847 19.874-103.798 71.722-116.036 51.849-12.237 103.799 19.873 116.037 71.722z" />
<glyph unicode="&#xe90b;" glyph-name="chat" d="M304.274-54.558c-8.777 0-17.554 2.261-25.401 6.915-15.692 9.043-25.266 25.799-25.266 43.886v152.137h-50.669c-111.842 0-202.938 90.963-202.938 202.938v405.743c0 111.842 90.963 202.938 202.938 202.938h608.682c111.842 0 202.938-90.963 202.938-202.938v-405.876c0-111.842-90.963-202.938-202.938-202.938h-138.705l-343.372-196.156c-7.713-4.522-16.49-6.649-25.135-6.649h-0.133zM202.805 858.531c-55.988 0-101.469-45.482-101.469-101.469v-405.876c0-55.988 45.482-101.469 101.469-101.469h101.469c28.060 0 50.669-22.741 50.669-50.668v-115.433l279.14 159.584c7.713 4.389 16.357 6.649 25.135 6.649h152.136c55.988 0 101.469 45.482 101.469 101.469v405.743c0 55.988-45.482 101.469-101.469 101.469h-608.549zM304.274 554.124c0 28.060 22.742 50.668 50.669 50.668s50.667-22.741 50.667-50.668c0-27.927-22.739-50.668-50.667-50.668s-50.669 22.741-50.669 50.668zM456.413 554.124c0 28.060 22.739 50.668 50.667 50.668s50.669-22.741 50.669-50.668c0-27.927-22.742-50.668-50.669-50.668s-50.667 22.741-50.667 50.668zM608.549 554.124c0 28.060 22.742 50.668 50.669 50.668s50.667-22.741 50.667-50.668c0-27.927-22.739-50.668-50.667-50.668s-50.669 22.741-50.669 50.668z" />
<glyph unicode="&#xe90c;" glyph-name="check-box" d="M504.072 266.818c-19.819 0-38.483 9.249-50.374 25.27l-188.945 252.036c-20.81 27.912-15.195 67.386 12.552 88.196 27.912 20.975 67.386 15.195 88.196-12.552l138.57-184.815 327.68 436.852c20.81 27.747 60.286 33.528 88.198 12.552 27.912-20.81 33.528-60.284 12.552-88.196l-378.054-504.073c-11.892-15.855-30.556-25.27-50.376-25.27v0zM756.108-48.145h-504.072c-138.9 0-252.036 112.97-252.036 252.036v504.072c0 138.9 112.97 252.036 252.036 252.036h252.036c34.849 0 62.928-28.243 62.928-62.926s-28.244-62.927-62.928-62.927h-252.036c-69.533 0-126.018-56.485-126.018-126.018v-504.072c0-69.533 56.485-126.018 126.018-126.018h504.072c69.533 0 126.018 56.485 126.018 126.018v252.036c0 34.849 28.243 62.926 62.926 62.926s62.926-28.243 62.926-62.926v-252.036c0-138.901-112.97-252.036-252.036-252.036l0.165-0.165z" />
<glyph unicode="&#xe90d;" glyph-name="check" d="M430.488 12.176c-18.663 0-36.337 8.258-48.394 22.627l-367.483 440.981c-22.297 26.756-18.663 66.395 8.093 88.692s66.395 18.663 88.692-8.093l313.971-376.898 467.408 686.906c19.489 28.738 58.796 36.17 87.534 16.681s36.17-58.797 16.681-87.535l-514.476-755.944c-11.066-16.351-29.235-26.591-49.055-27.582-0.991 0-1.98 0-2.971 0v0.165z" />
<glyph unicode="&#xe90e;" glyph-name="checklist" d="M781.076 753.152h-480.65c-33.241 0-60.022 26.939-60.022 60.022s26.939 60.022 60.022 60.022h480.807c33.241 0 60.022-26.939 60.022-60.022s-26.939-60.022-60.022-60.022h-0.158zM961.3 392.704h-660.874c-33.241 0-60.022 26.939-60.022 60.022s26.939 60.022 60.022 60.022h661.031c33.241 0 60.022-26.939 60.022-60.022s-26.939-60.022-60.022-60.022h-0.158zM781.076 32.098h-480.65c-33.241 0-60.022 26.939-60.022 60.022s26.939 60.022 60.022 60.022h480.807c33.241 0 60.022-26.939 60.022-60.022s-26.939-60.022-60.022-60.022h-0.158zM60.022 753.31c33.149 0 60.022 26.873 60.022 60.022s-26.873 60.022-60.022 60.022c-33.149 0-60.022-26.873-60.022-60.022s26.873-60.022 60.022-60.022zM60.022 392.704c33.149 0 60.022 26.873 60.022 60.022s-26.873 60.022-60.022 60.022c-33.149 0-60.022-26.873-60.022-60.022s26.873-60.022 60.022-60.022zM60.022 32.256c33.149 0 60.022 26.873 60.022 60.022s-26.873 60.022-60.022 60.022c-33.149 0-60.022-26.873-60.022-60.022s26.873-60.022 60.022-60.022z" />
<glyph unicode="&#xe90f;" glyph-name="circle" d="M503.907-48.145c-277.966 0-503.907 226.106-503.907 504.072s226.106 504.072 503.907 504.072c277.801 0 504.072-226.106 504.072-504.072s-226.106-504.072-504.072-504.072zM503.907 833.817c-208.434 0-378.052-169.62-378.052-378.054s169.619-378.054 378.052-378.054c208.434 0 378.053 169.621 378.053 378.054s-169.619 378.054-378.053 378.054z" />
<glyph unicode="&#xe910;" glyph-name="cloud" d="M483.722 364.916c-20.713 0-39.213 14.545-43.402 35.491-16.756 82.269-89.949 141.964-174.080 141.964-24.553 0-44.336 19.897-44.336 44.333s19.899 44.336 44.336 44.336c126.138 0 235.984-89.601 261.002-213.063 4.887-23.971-10.588-47.476-34.675-52.364-3.025-0.582-5.936-0.93-8.845-0.93v0.233zM687.942 98.56h-443.811c-134.633 0-244.131 109.498-244.131 244.131 0 4.189 0.465 8.378 1.047 12.451-0.582 1.396-1.047 5.469-1.047 9.658 0 146.851 119.505 266.356 266.356 266.356 28.975 0 57.484-4.887 85.062-14.545 60.393 116.596 181.411 192.116 314.415 192.116 195.84 0 355.142-159.302 355.142-355.142 0-149.295-94.604-283.462-235.287-333.964-29.091-13.498-63.069-21.062-97.513-21.062h-0.233zM266.24 542.371c-97.862 0-177.571-79.593-177.571-177.571 0.582-2.909 0.93-5.936 1.047-9.078v-4.655c-0.116-2.793-0.465-5.584-0.93-8.377-0.116-85.76 69.585-155.462 155.229-155.462h443.811c21.644 0 43.171 4.887 64 14.429 109.149 39.331 180.131 139.985 180.131 251.927 0 146.851-119.505 266.356-266.356 266.356-111.709 0-212.131-71.215-249.949-177.105l-17.687-49.455-45.847 25.716c-27.695 15.476-56.669 23.389-86.109 23.389l0.233-0.116z" />
<glyph unicode="&#xe911;" glyph-name="coin" d="M509.474-58.953c-280.932 0-509.474 228.543-509.474 509.476s228.542 509.477 509.474 509.477c280.932 0 509.479-228.545 509.479-509.477s-228.546-509.476-509.479-509.476zM509.474 846.766c-218.453 0-396.242-177.79-396.242-396.243s177.789-396.242 396.242-396.242c218.453 0 396.246 177.789 396.246 396.242s-177.793 396.243-396.246 396.243zM566.167 393.833h-84.888c-78.061 0-141.579 63.516-141.579 141.578s63.518 141.581 141.579 141.581h84.888c31.314 0 56.544-25.379 56.544-56.544s-25.379-56.541-56.544-56.541h-84.888c-15.434 0-28.344-12.913-28.344-28.347s12.91-28.346 28.344-28.346h84.888c31.314 0 56.544-25.376 56.544-56.541s-25.379-56.544-56.544-56.544v-0.295zM537.823 224.056h-141.579c-31.314 0-56.544 25.379-56.544 56.544s25.379 56.541 56.544 56.541h141.579c15.434 0 28.344 12.913 28.344 28.347s-12.91 28.346-28.344 28.346c-31.314 0-56.544 25.376-56.544 56.541s25.379 56.544 56.544 56.544c78.061 0 141.579-63.518 141.579-141.579s-63.518-141.581-141.579-141.581v0.297zM509.474 620.299c-31.314 0-56.54 25.377-56.54 56.543v56.544c0 31.314 25.374 56.541 56.54 56.541s56.544-25.376 56.544-56.541v-56.544c0-31.314-25.379-56.543-56.544-56.543zM509.474 110.822c-31.314 0-56.54 25.379-56.54 56.544v56.541c0 31.314 25.374 56.544 56.54 56.544s56.544-25.379 56.544-56.544v-56.541c0-31.314-25.379-56.544-56.544-56.544z" />
<glyph unicode="&#xe912;" glyph-name="credit-card" d="M819.832 68.361h-626.916c-106.319 0-192.917 86.471-192.917 192.917v385.707c0 106.319 86.471 192.917 192.917 192.917h626.916c106.319 0 192.917-86.471 192.917-192.917v-385.707c0-106.319-86.471-192.917-192.917-192.917zM192.917 743.443c-53.223 0-96.458-43.236-96.458-96.458v-385.707c0-53.223 43.236-96.458 96.458-96.458h626.916c53.223 0 96.458 43.236 96.458 96.458v385.707c0 53.223-43.236 96.458-96.458 96.458h-626.916zM289.375 261.278h-96.458c-26.675 0-48.166 21.618-48.166 48.166s21.618 48.166 48.166 48.166h96.458c26.675 0 48.166-21.618 48.166-48.166s-21.618-48.166-48.166-48.166zM916.29 502.359h-819.706c-26.675 0-48.166 21.619-48.166 48.167s21.618 48.166 48.166 48.166h819.706c26.675 0 48.166-21.618 48.166-48.166s-21.618-48.167-48.166-48.167z" />
<glyph unicode="&#xe913;" glyph-name="doc" d="M716.17-61.637h-420.628c-132.49 0-240.404 107.756-240.404 240.404v540.83c0 132.49 107.756 240.404 240.404 240.404h300.426c15.911 0 31.193-6.301 42.535-17.644l300.426-300.426c11.343-11.343 17.644-26.624 17.644-42.535v-420.628c0-132.49-107.756-240.404-240.404-240.404v0zM295.542 839.798c-66.324 0-120.202-53.878-120.202-120.202v-540.83c0-66.324 53.878-120.202 120.202-120.202h420.628c66.324 0 120.202 53.878 120.202 120.202v395.737l-265.295 265.295h-275.535zM836.372 479.193h-261.829c-54.351 0-98.777 44.268-98.777 98.777v321.851c0 33.241 26.939 60.022 60.022 60.022s60.022-26.939 60.022-60.022v-300.426h240.404c33.241 0 60.022-26.939 60.022-60.022s-26.939-60.022-60.022-60.022l0.158-0.158z" />
<glyph unicode="&#xe914;" glyph-name="dolar" d="M854.399 127.573h-691.626c-89.707 0-162.773 72.96-162.773 162.773v325.547c0 89.707 72.96 162.773 162.773 162.773h691.626c89.707 0 162.773-72.96 162.773-162.773v-325.547c0-89.707-72.96-162.773-162.773-162.773zM162.773 697.173c-44.907 0-81.388-36.48-81.388-81.387v-325.547c0-44.907 36.481-81.387 81.388-81.387h691.626c44.907 0 81.388 36.48 81.388 81.387v325.547c0 44.907-36.481 81.387-81.388 81.387h-691.626zM569.599 412.373h-61.013c-56.107 0-101.76 45.653-101.76 101.76s45.653 101.76 101.76 101.76h61.013c22.507 0 40.641-18.241 40.641-40.641s-18.241-40.639-40.641-40.639h-61.013c-11.093 0-20.372-9.28-20.372-20.373s9.279-20.374 20.372-20.374h61.013c22.507 0 40.641-18.239 40.641-40.639s-18.241-40.641-40.641-40.641v-0.212zM549.227 290.347h-101.76c-22.507 0-40.641 18.24-40.641 40.64s18.241 40.64 40.641 40.64h101.76c11.093 0 20.372 9.28 20.372 20.373s-9.279 20.373-20.372 20.373c-22.507 0-40.641 18.24-40.641 40.64s18.241 40.64 40.641 40.64c56.107 0 101.76-45.653 101.76-101.76s-45.653-101.76-101.76-101.76v0.213zM528.958 575.146c-22.507 0-40.638 18.241-40.638 40.641v40.64c0 22.507 18.238 40.64 40.638 40.64s40.641-18.239 40.641-40.64v-40.64c0-22.507-18.241-40.641-40.641-40.641zM528.958 208.96c-22.507 0-40.638 18.24-40.638 40.64v40.64c0 22.507 18.238 40.64 40.638 40.64s40.641-18.24 40.641-40.64v-40.64c0-22.507-18.241-40.64-40.641-40.64zM854.399 371.733c-22.507 0-40.639 18.24-40.639 40.64v81.387c0 22.507 18.239 40.64 40.639 40.64s40.64-18.24 40.64-40.64v-81.387c0-22.507-18.24-40.64-40.64-40.64zM162.773 371.733c-22.507 0-40.64 18.24-40.64 40.64v81.387c0 22.507 18.24 40.64 40.64 40.64s40.638-18.24 40.638-40.64v-81.387c0-22.507-18.238-40.64-40.638-40.64z" />
<glyph unicode="&#xe915;" glyph-name="download" d="M507.212 247.456c-13.033 0-25.932 4.921-35.906 14.895l-152.138 152.137c-19.815 19.815-19.815 51.865 0 71.68s51.866 19.815 71.681 0l116.364-116.364 116.364 116.364c19.815 19.815 51.865 19.815 71.68 0s19.815-51.865 0-71.68l-152.138-152.137c-9.974-9.841-22.872-14.895-35.905-14.895zM811.62-6.151h-608.682c-111.842 0-202.938 90.963-202.938 202.938 0 28.060 22.742 50.668 50.669 50.668s50.667-22.741 50.667-50.668c0-55.988 45.482-101.469 101.469-101.469h608.682c55.988 0 101.469 45.482 101.469 101.469 0 28.060 22.742 50.668 50.669 50.668s50.667-22.741 50.667-50.668c0-111.842-90.963-202.938-202.938-202.938h0.266zM507.879 348.925c-28.060 0-50.669 22.741-50.669 50.668v456.544c0 28.060 22.742 50.668 50.669 50.668s50.667-22.741 50.667-50.668v-456.544c0-28.060-22.739-50.668-50.667-50.668z" />
<glyph unicode="&#xe916;" glyph-name="duplicate" d="M558.010-56.704h-366.957c-105.346 0-191.053 85.706-191.053 191.052v366.957c0 105.346 85.707 191.053 191.053 191.053h366.957c105.346 0 191.053-85.707 191.053-191.053v-366.957c0-105.346-85.707-191.052-191.053-191.052zM191.053 585.328c-46.29 0-84.025-37.734-84.025-84.024v-366.957c0-46.29 37.735-84.023 84.025-84.023h366.957c46.29 0 84.024 37.732 84.024 84.023v366.957c0 46.29-37.734 84.024-84.024 84.024h-366.957zM870.26 210.797c-22.023 0-42.645 13.607-50.36 35.489-9.959 27.915 4.489 58.494 32.403 68.454 34.227 12.204 57.373 44.747 57.373 80.938v371.445c0 47.272-38.575 85.848-85.848 85.848h-371.445c-36.191 0-68.734-23.005-80.938-57.232-9.959-27.774-40.539-42.222-68.454-32.403-27.915 9.959-42.363 40.539-32.403 68.314 27.353 76.73 100.436 128.351 181.795 128.351h371.445c106.328 0 192.877-86.549 192.877-192.877v-371.445c0-81.219-51.622-154.301-128.352-181.655-5.892-2.104-12.062-3.086-17.954-3.086l-0.14-0.14z" />
<glyph unicode="&#xe917;" glyph-name="email" d="M811.62 48.64h-608.682c-111.842 0-202.938 90.963-202.938 202.938v405.743c0 111.842 90.963 202.938 202.938 202.938h608.682c111.842 0 202.938-90.963 202.938-202.938v-405.743c0-111.842-90.963-202.938-202.938-202.938zM202.938 758.791c-55.988 0-101.471-45.482-101.471-101.469v-405.743c0-55.988 45.483-101.469 101.471-101.469h608.682c55.988 0 101.468 45.482 101.468 101.469v405.743c0 55.988-45.48 101.469-101.468 101.469h-608.682zM507.211 353.047c-10.639 0-21.408 3.458-30.451 10.107l-405.876 304.407c-22.475 16.756-26.996 48.539-10.107 71.014 16.756 22.342 48.538 26.996 71.013 10.107l375.422-281.534 375.426 281.534c22.342 16.889 54.256 12.235 71.012-10.107 16.889-22.475 12.235-54.258-10.107-71.014l-405.876-304.407c-9.043-6.782-19.683-10.107-30.455-10.107zM912.956 99.44c-10.639 0-21.275 3.325-30.318 10.107l-202.938 152.138c-22.475 16.756-26.998 48.539-10.108 71.014 16.889 22.342 48.539 26.996 71.014 10.107l202.938-152.136c22.475-16.756 26.996-48.542 10.107-71.016-9.974-13.299-25.135-20.346-40.561-20.346l-0.133 0.132zM101.468 99.44c-15.426 0-30.717 7.048-40.558 20.347-16.889 22.475-12.235 54.259 10.107 71.015l202.938 152.137c22.342 16.889 54.124 12.235 71.014-10.107 16.889-22.475 12.235-54.257-10.107-71.014l-202.939-152.138c-9.176-6.915-19.815-10.107-30.321-10.107l-0.133-0.133z" />
<glyph unicode="&#xe918;" glyph-name="flag" d="M242.815-56.427c-29.598 0-53.445 23.988-53.445 53.446v909.536c0 29.598 23.988 53.445 53.445 53.445s53.444-23.988 53.444-53.445v-909.536c0-29.598-23.986-53.446-53.444-53.446zM403.288 318.106c-29.598 0-53.443 23.985-53.443 53.443s23.985 53.446 53.443 53.446h317.019c2.104 0.561 3.787 3.507 3.507 7.435-0.281 4.348-2.524 5.751-3.646 6.453-5.471 3.367-10.24 7.715-14.027 12.765l-77.713 101.278c-14.729 19.218-14.729 46.010 0 65.227l78.273 101.699c3.928 5.050 8.697 9.397 14.027 12.764 1.122 0.701 3.367 2.106 3.647 6.314 0.14 3.647-1.403 6.453-2.104 7.014h-318.983c-29.598 0-53.443 24.126-53.443 53.583s23.985 53.446 53.443 53.446h317.019c53.024-1.403 93.703-33.666 106.889-82.201 12.625-46.431-3.646-94.404-40.538-122.74l-48.256-62.704 47.693-62.28c37.313-28.616 53.444-77.010 40.399-123.722-13.466-48.675-54.286-80.658-103.943-81.499l-319.264 0.281z" />
<glyph unicode="&#xe919;" glyph-name="folder" d="M811.62 17.92h-608.682c-111.842 0-202.938 90.963-202.938 202.938v560.407c0 54.525 44.418 98.942 98.943 98.942h187.245c87.372 0 169.957-43.087 220.891-115.166 16.49-23.539 40.694-36.971 66.095-36.971h238.579c111.842 0 202.938-90.963 202.938-202.938v-304.407c0-111.842-90.963-202.938-202.938-202.938l-0.133 0.133zM98.943 778.872l2.526-558.014c0-55.988 45.482-101.469 101.469-101.469h608.682c55.988 0 101.469 45.482 101.469 101.469v304.407c0 55.988-45.482 101.469-101.469 101.469h-238.579c-57.982 0-113.704 29.922-148.945 79.925-31.917 45.216-83.516 72.212-137.908 72.212h-187.245zM811.62 778.872h-202.938c-28.060 0-50.668 22.741-50.668 50.668s22.741 50.668 50.668 50.668h202.938c28.060 0 50.668-22.741 50.668-50.668s-22.741-50.668-50.668-50.668z" />
<glyph unicode="&#xe91a;" glyph-name="Frame-67" d="M312.499 140.518c-10.035 0-19.968 3.789-27.648 11.469l-273.408 273.408c-15.258 15.258-15.258 39.936 0 55.194l273.408 273.408c15.258 15.258 39.936 15.258 55.194 0s15.258-39.936 0-55.194l-245.76-245.76 245.76-245.76c15.258-15.258 15.258-39.936 0-55.194-7.578-7.68-17.613-11.469-27.648-11.469l0.102-0.102zM976.461 413.926h-703.078c-21.606 0-39.013 17.51-39.013 39.014s17.509 39.014 39.013 39.014h703.078c21.606 0 39.015-17.51 39.015-39.014s-17.511-39.014-39.015-39.014z" />
<glyph unicode="&#xe91b;" glyph-name="Frame-68" d="M702.976 140.621c-10.035 0-19.969 3.789-27.649 11.469-15.258 15.258-15.258 39.936 0 55.194l245.76 245.76-245.76 245.76c-15.258 15.258-15.258 39.936 0 55.194s39.936 15.258 55.194 0l273.408-273.408c15.258-15.258 15.36-40.038 0-55.296l-273.408-273.408c-7.68-7.68-17.612-11.469-27.647-11.469l0.102 0.205zM742.093 414.029h-703.079c-21.606 0-39.014 17.51-39.014 39.014s17.51 39.014 39.014 39.014h703.079c21.606 0 39.013-17.51 39.013-39.014s-17.509-39.014-39.013-39.014z" />
<glyph unicode="&#xe91c;" glyph-name="Frame-69" d="M506.453 381.298c-18.584 0-36.978 7.016-51.2 21.239-28.255 28.255-28.255 73.956 0 102.21l434.062 434.062c28.255 28.255 73.954 28.255 102.208 0s28.255-73.956 0-102.21l-434.060-434.062c-14.033-14.033-32.616-21.239-51.2-21.239h0.19zM72.39-52.764c-18.584 0-36.977 7.016-51.199 21.239-28.255 28.255-28.255 73.956 0 102.21l434.062 434.062c28.255 28.255 73.956 28.255 102.21 0s28.255-73.956 0-102.21l-434.062-434.062c-14.222-14.033-32.618-21.239-51.201-21.239h0.19zM506.453 381.298c-18.584 0-36.978 7.016-51.2 21.239l-434.062 434.062c-28.255 28.255-28.255 73.956 0 102.21s73.956 28.255 102.211 0l434.062-434.062c28.255-28.255 28.255-73.956 0-102.21-14.033-14.033-32.616-21.239-51.2-21.239h0.19zM940.326-52.764c-18.584 0-36.978 7.016-51.2 21.239l-434.062 434.062c-28.255 28.255-28.255 73.956 0 102.21s73.956 28.255 102.21 0l434.062-434.062c28.255-28.255 28.255-73.956 0-102.21-14.222-14.033-32.616-21.239-51.2-21.239h0.19z" />
<glyph unicode="&#xe91d;" glyph-name="go-left" d="M152.444 582.111l270.201 270.369c24.609 24.609 24.609 64.578 0 89.022-12.387 12.387-28.406 18.498-44.592 18.498s-32.206-6.111-44.594-18.498l-314.963-314.963c-11.892-11.892-18.496-27.912-18.496-44.594s6.604-32.702 18.496-44.594l314.963-314.963c12.222-12.222 28.408-18.498 44.594-18.498s32.205 6.111 44.592 18.498c24.609 24.609 24.609 64.413 0 89.022l-270.201 270.369v0.33zM945.218-47.814c-34.849 0-62.928 28.243-62.928 62.926v378.054c0 69.533-56.487 126.018-126.020 126.018h-314.959c-34.849 0-62.928 28.243-62.928 62.926s28.244 62.926 62.928 62.926h314.959c138.901 0 252.036-112.97 252.036-252.036v-378.054c0-34.849-28.239-62.926-62.923-62.926l-0.165 0.165z" />
<glyph unicode="&#xe91e;" glyph-name="go-right" d="M989.316 626.581l-314.961 314.963c-24.609 24.609-64.415 24.609-89.024 0s-24.609-64.413 0-89.022l270.536-270.534h151.948c0 16.186-6.113 32.372-18.5 44.594zM585.332 311.618c-24.609-24.609-24.609-64.413 0-89.022s64.415-24.609 89.024 0l314.961 314.963c12.387 12.387 18.5 44.594 18.5 44.594h-152.114l-270.371-270.534zM62.927-47.938c-34.849 0-62.927 28.243-62.927 62.926v378.054c0 138.901 112.97 252.036 252.036 252.036h314.964c34.849 0 62.923-28.243 62.923-62.926s-28.239-62.926-62.923-62.926h-314.964c-69.533 0-126.016-56.485-126.016-126.018v-378.054c0-34.849-28.244-62.926-62.927-62.926l-0.165-0.165z" />
<glyph unicode="&#xe91f;" glyph-name="grid" d="M343.276 479.193h-205.901c-75.776 0-137.375 61.598-137.375 137.374v206.061c0 75.776 61.599 137.373 137.375 137.373h205.901c75.776 0 137.374-61.597 137.374-137.373v-206.061c0-75.776-61.598-137.374-137.374-137.374zM137.375 839.798c-9.295 0-17.173-7.876-17.173-17.171v-206.061c0-9.295 7.878-17.172 17.173-17.172h205.901c9.295 0 17.172 7.877 17.172 17.172v206.061c0 9.295-7.877 17.171-17.172 17.171h-205.901zM884.106 479.193h-205.903c-75.776 0-137.372 61.598-137.372 137.374v206.061c0 75.776 61.596 137.373 137.372 137.373h205.903c75.776 0 137.375-61.597 137.375-137.373v-206.061c0-75.776-61.599-137.374-137.375-137.374zM678.203 839.798c-9.295 0-17.17-7.876-17.17-17.171v-206.061c0-9.295 7.875-17.172 17.17-17.172h205.903c9.295 0 17.173 7.877 17.173 17.172v206.061c0 9.295-7.878 17.171-17.173 17.171h-205.903zM343.276-61.637h-205.901c-75.776 0-137.375 61.598-137.375 137.374v206.060c0 75.776 61.599 137.374 137.375 137.374h205.901c75.776 0 137.374-61.598 137.374-137.374v-206.060c0-75.776-61.598-137.374-137.374-137.374zM137.375 298.969c-9.295 0-17.173-7.877-17.173-17.172v-206.060c0-9.295 7.878-17.172 17.173-17.172h205.901c9.295 0 17.172 7.877 17.172 17.172v206.060c0 9.295-7.877 17.172-17.172 17.172h-205.901zM884.106-61.637h-205.903c-75.776 0-137.372 61.598-137.372 137.374v206.060c0 75.776 61.596 137.374 137.372 137.374h205.903c75.776 0 137.375-61.598 137.375-137.374v-206.060c0-75.776-61.599-137.374-137.375-137.374zM678.203 298.969c-9.295 0-17.17-7.877-17.17-17.172v-206.060c0-9.295 7.875-17.172 17.17-17.172h205.903c9.295 0 17.173 7.877 17.173 17.172v206.060c0 9.295-7.878 17.172-17.173 17.172h-205.903z" />
<glyph unicode="&#xe920;" glyph-name="home" d="M815.918 23.205h-605.342c-53.957 0-97.936 43.978-97.936 97.935v406.055l-53.432 3.676c-22.187 1.444-40.697 17.329-45.555 38.991s5.12 43.848 24.55 54.745l427.848 237.752c29.538 16.41 64.722 16.41 94.129 0l427.979-237.752c19.43-10.765 29.407-33.083 24.55-54.745s-23.368-37.547-45.555-38.991l-53.432-3.676v-406.055c0-53.957-43.979-97.935-97.936-97.935h0.131zM203.881 602.553c5.645-8.139 8.927-17.987 8.927-28.49v-452.923l603.11 2.233-2.232 450.69c0 10.371 3.151 20.087 8.665 28.096l-310.613 172.636-307.856-172.242zM563.331 23.205c-27.701 0-50.018 22.448-50.018 50.017 0-27.701-22.449-50.017-50.018-50.017s-50.018 22.448-50.018 50.017v175.13c0 41.485 33.739 75.356 75.356 75.356h49.887c41.485 0 75.093-33.739 75.093-75.093v-175.262c0-27.701-22.449-50.018-50.018-50.018l-0.263-0.13z" />
<glyph unicode="&#xe921;" glyph-name="image" d="M819.832 68.361h-626.917c-106.318 0-192.915 86.471-192.915 192.917v385.707c0 106.319 86.47 192.917 192.915 192.917h626.917c106.319 0 192.917-86.471 192.917-192.917v-385.707c0-106.319-86.471-192.917-192.917-192.917zM192.915 743.443c-53.223 0-96.457-43.236-96.457-96.458v-385.707c0-53.223 43.234-96.458 96.457-96.458h626.917c53.223 0 96.458 43.236 96.458 96.458v385.707c0 53.223-43.236 96.458-96.458 96.458h-626.917zM193.043 212.986c-15.55 0-30.846 7.585-40.201 21.491-14.791 22.123-8.849 52.085 13.4 66.876l144.624 96.458c16.182 10.746 37.294 10.746 53.476 0l111.755-74.461 164.851 164.978c16.308 16.308 41.845 18.71 60.808 6.068l144.624-96.458c22.123-14.791 28.192-44.753 13.4-66.876s-44.626-28.192-66.876-13.4l-111.755 74.462-164.851-164.979c-16.308-16.308-41.719-18.71-60.808-6.068l-117.95 78.633-117.95-78.633c-8.217-5.436-17.572-8.091-26.675-8.091h0.126zM192.915 574.673c0 39.949 32.365 72.312 72.313 72.312s72.312-32.363 72.312-72.312c0-39.949-32.363-72.312-72.312-72.312s-72.313 32.363-72.313 72.312z" />
<glyph unicode="&#xe922;" glyph-name="inbox" d="M892.782-25.234h-765.221c-70.363 0-127.561 57.198-127.561 127.561v693.541c0 70.363 57.197 127.561 127.561 127.561h765.221c70.363 0 127.561-57.197 127.561-127.561v-693.541c0-70.363-57.198-127.561-127.561-127.561zM127.561 811.813c-8.631 0-15.946-7.314-15.946-15.945v-693.541c0-8.631 7.315-15.945 15.946-15.945h765.221c8.631 0 15.945 7.314 15.945 15.945v693.541c0 8.631-7.314 15.945-15.945 15.945h-765.221zM334.848 30.501c-23.845 0-44.178 14.921-52.078 35.84h-226.89c-30.866 0-55.735 25.015-55.735 55.735s25.015 55.735 55.735 55.735h243.126c50.469 0 91.723-41.106 91.723-91.721 0-30.866-25.015-55.735-55.735-55.735l-0.146 0.146zM613.815 588.581h-223.232c-30.866 0-55.735 25.015-55.735 55.735s25.015 55.735 55.735 55.735h223.232c30.866 0 55.735-25.015 55.735-55.735s-25.015-55.735-55.735-55.735zM669.55 421.23h-334.849c-30.866 0-55.735 25.015-55.735 55.735s25.015 55.735 55.735 55.735h334.849c30.866 0 55.735-25.015 55.735-55.735s-25.015-55.735-55.735-55.735zM613.815 253.733h-223.232c-30.866 0-55.735 25.015-55.735 55.735s25.015 55.735 55.735 55.735h223.232c30.866 0 55.735-25.015 55.735-55.735s-25.015-55.735-55.735-55.735zM669.55 30.501c-30.866 0-55.735 25.015-55.735 55.735 0 50.469 41.106 91.721 91.721 91.721h259.071c30.866 0 55.736-25.015 55.736-55.735s-25.016-55.735-55.736-55.735h-242.833c-8.046-20.919-28.379-35.84-52.078-35.84l-0.146-0.146z" />
<glyph unicode="&#xe923;" glyph-name="like" d="M503.768 15.889c-13.213 0-26.591 4.294-37.822 12.552-10.901 8.258-268.551 201.992-366.161 328.506-82.085 106.199-116.605 229.739-91.996 330.323 19.159 78.947 71.515 140.221 151.288 177.383 117.429 54.834 253.357 30.224 344.856-54.339 91.499 84.728 227.429 109.172 344.858 54.339 79.938-37.161 132.129-98.601 151.288-177.383 24.444-100.748-9.911-224.289-91.996-330.488-97.61-126.348-355.26-320.248-366.161-328.341-11.231-8.423-24.444-12.552-37.822-12.552h-0.332zM290.545 768.363c-25.27 0-51.861-5.45-78.286-17.672-44.594-20.81-72.175-52.026-82.085-92.986-15.195-62.926 11.23-148.478 69.367-223.627 66.89-86.545 230.235-217.848 304.392-275.654 74.157 57.806 237.669 189.275 304.394 275.654 57.972 74.983 84.563 160.7 69.368 223.627-9.91 40.96-37.657 72.176-82.085 92.986-97.61 45.585-195.387-2.972-237.999-71.679-22.957-36.996-84.231-36.996-107.188 0-31.050 50.044-91.501 89.351-159.713 89.351h-0.165z" />
<glyph unicode="&#xe924;" glyph-name="link" d="M749.042 344.961c-13.561 0-26.984 5.119-37.362 15.497-20.618 20.618-20.618 53.969 0 74.587l149.31 149.309c61.717 61.717 61.717 162.179 0 223.896s-162.179 61.856-224.035 0l-149.31-149.31c-20.618-20.618-53.968-20.618-74.586 0s-20.618 53.968 0 74.586l149.31 149.311c102.954 102.954 270.393 102.815 373.208 0 102.815-102.954 102.815-270.252 0-373.206l-149.312-149.312c-10.24-10.378-23.801-15.498-37.362-15.498l0.138 0.14zM263.888-52.6c-67.667 0-135.196 25.737-186.672 77.214-102.954 102.954-102.954 270.253 0 373.206l149.31 149.31c20.618 20.618 53.968 20.618 74.586 0s20.618-53.968 0-74.586l-149.31-149.31c-61.717-61.717-61.717-162.178 0-223.895s162.179-61.717 223.896 0l149.31 149.31c20.618 20.618 53.968 20.618 74.586 0s20.618-53.968 0-74.586l-149.31-149.312c-51.477-51.477-119.005-77.214-186.534-77.214l0.138-0.138zM413.199 307.736c-13.561 0-26.985 5.12-37.364 15.498-20.618 20.618-20.618 53.968 0 74.586l186.534 186.672c20.618 20.618 53.968 20.618 74.586 0s20.618-53.966 0-74.585l-186.534-186.674c-10.24-10.24-23.801-15.498-37.362-15.498h0.14z" />
<glyph unicode="&#xe925;" glyph-name="pen" d="M704.756-52.717h-385.834c-26.675 0-48.166 21.618-48.166 48.166s21.618 48.166 48.166 48.166h385.834c26.675 0 48.166-21.618 48.166-48.166s-21.618-48.166-48.166-48.166zM584.15-52.717h-144.624c-26.675 0-48.166 21.618-48.166 48.166s21.618 48.166 48.166 48.166h144.624c26.675 0 48.166-21.618 48.166-48.166s-21.618-48.166-48.166-48.166zM136.751 113.272c-12.516 0-24.904 4.93-34.133 14.159-12.895 12.895-17.447 31.984-11.631 49.304l170.415 511.494c4.298 13.021 14.031 23.64 26.8 29.077l238.682 102.274c18.078 7.838 39.189 3.793 53.095-10.24l204.548-204.547c13.906-13.906 17.952-35.018 10.24-53.096l-102.275-238.68c-5.436-12.642-16.055-22.376-29.077-26.801l-511.494-170.414c-4.93-1.643-10.113-2.528-15.296-2.528h0.126zM346.102 637.156l-133.119-399.486 399.486 133.12 80.909 188.745-158.404 158.404-188.871-80.782zM204.891 181.539c-12.389 0-24.652 4.678-34.133 14.159-18.837 18.837-18.837 49.304 0 68.14l204.547 204.547c18.837 18.837 49.304 18.837 68.14 0s18.837-49.304 0-68.14l-204.674-204.547c-9.355-9.355-21.744-14.159-34.133-14.159h0.253zM886.926 590.633c-12.389 0-24.652 4.678-34.133 14.159l-272.814 272.814c-9.355 9.355-14.159 21.744-14.159 34.133s4.678 24.652 14.159 34.133c18.837 18.837 49.304 18.837 68.14 0l272.814-272.814c9.355-9.355 14.159-21.744 14.159-34.133s-4.678-24.652-14.159-34.133c-9.355-9.355-21.744-14.159-34.133-14.159h0.126z" />
<glyph unicode="&#xe926;" glyph-name="pin" d="M506.722-60.041c-50.108 0-96.119 27.307-120.149 71.407l-209.853 384.751c-64.99 119.33-62.532 260.369 6.963 377.242 69.359 116.873 191.966 186.641 327.817 186.641s256-68.54 324.13-183.364c68.13-114.825 70.724-253.269 6.827-370.551l-215.313-394.854c-24.030-43.964-70.039-71.27-120.283-71.27h-0.138zM513.548 855.825c-100.898 0-190.056-50.654-240.437-135.714-50.517-84.924-52.29-187.46-5.049-274.159l209.849-384.751c8.329-15.428 22.939-17.067 28.673-17.067s20.342 1.638 28.807 17.067l215.313 394.854c46.148 84.651 44.376 184.593-4.912 267.469-49.152 82.876-135.989 132.301-232.381 132.301h0.137zM507.676 387.652c-97.621 0-177.082 79.462-177.082 177.084s79.461 177.084 177.082 177.084c97.621 0 177.088-79.462 177.088-177.084s-79.466-177.084-177.088-177.084zM507.676 637.645c-40.277 0-72.906-32.768-72.906-72.909s32.765-72.909 72.906-72.909c40.141 0 72.91 32.768 72.91 72.909s-32.769 72.909-72.91 72.909z" />
<glyph unicode="&#xe927;" glyph-name="remove" d="M756.108-48.145h-504.072c-138.9 0-252.036 112.97-252.036 252.036v504.072c0 138.9 112.97 252.036 252.036 252.036h504.072c138.901 0 252.036-112.97 252.036-252.036v-504.072c0-138.901-112.97-252.036-252.036-252.036zM252.036 833.817c-69.533 0-126.018-56.485-126.018-126.018v-504.072c0-69.533 56.485-126.018 126.018-126.018h504.072c69.533 0 126.018 56.485 126.018 126.018v504.072c0 69.533-56.485 126.018-126.018 126.018h-504.072zM693.182 392.836h-378.054c-34.849 0-62.926 28.243-62.926 62.926s28.243 62.926 62.926 62.926h378.054c34.849 0 62.926-28.243 62.926-62.926s-28.243-62.926-62.926-62.926z" />
<glyph unicode="&#xe928;" glyph-name="search" d="M378.053 203.892c-208.434 0-378.053 169.621-378.053 378.054s169.619 378.054 378.053 378.054c208.434 0 378.053-169.621 378.053-378.054s-169.619-378.054-378.053-378.054zM378.053 833.817c-138.901 0-252.036-112.97-252.036-252.036s112.971-252.036 252.036-252.036c139.066 0 252.036 112.97 252.036 252.036s-112.97 252.036-252.036 252.036zM945.053-47.979c-16.186 0-32.21 6.111-44.597 18.498l-314.959 314.963c-24.609 24.609-24.609 64.413 0 89.022s64.411 24.609 89.020 0l314.964-314.963c24.609-24.609 24.609-64.413 0-89.022-12.222-12.222-28.408-18.498-44.594-18.498h0.165z" />
<glyph unicode="&#xe929;" glyph-name="send" d="M559.486-13.069c-24.551 0-48.239 9.623-66.252 27.636l-138.671 119.302-110.296-110.296c-13.448-13.448-33.682-17.519-51.325-10.24s-28.993 24.428-28.993 43.427v264.883l-137.684 159.892c-22.824 23.811-31.46 56.752-23.194 88.829 8.513 32.694 32.941 57.739 65.388 66.992l833.635 275.493c34.545 9.993 70.076 0.74 94.257-23.441s33.433-59.589 24.057-92.53c-0.864-2.838-1.851-5.551-3.208-8.142l-368.393-738.144c-10.24-29.98-34.421-52.434-65.388-60.576-8.019-2.097-16.039-3.084-24.058-3.084h0.123zM352.22 245.028c10.98 0 21.836-3.825 30.719-11.35l174.327-150.146c0.74 2.838 4.688 3.208 5.922 5.799l365.802 733.085-832.77-274.752c0.864-0.864-0.247-2.467 0.493-3.331l150.146-174.327c7.402-8.513 11.35-19.493 11.35-30.72v-168.775l60.822 60.823c9.13 9.13 21.221 13.818 33.312 13.818l-0.123-0.123zM210.958 292.156c-14.435 0-28.747 6.662-38 19.246-15.298 20.973-10.856 50.46 10.118 65.758l705.943 517.676c20.973 15.422 50.335 10.857 65.757-10.117 15.298-20.973 10.858-50.46-10.115-65.758l-705.943-517.676c-8.389-6.169-18.136-9.13-27.759-9.13zM352.097 151.017c-12.091 0-24.058 4.565-33.311 13.818-18.383 18.383-18.383 48.116 0 66.498l611.809 611.81c18.383 18.383 48.116 18.383 66.498 0s18.383-48.116 0-66.499l-611.809-611.809c-9.13-9.13-21.22-13.818-33.311-13.818h0.123z" />
<glyph unicode="&#xe92a;" glyph-name="settings" d="M507.477 300.517c-83.915 0-152.136 68.222-152.136 152.137s68.221 152.137 152.136 152.137c83.915 0 152.137-68.222 152.137-152.137s-68.222-152.137-152.137-152.137zM507.477 503.456c-27.927 0-50.668-22.741-50.668-50.668s22.741-50.668 50.668-50.668c27.927 0 50.669 22.741 50.669 50.668s-22.742 50.668-50.669 50.668zM507.477-54.558c-55.988 0-101.468 45.482-101.468 101.469l0.662 8.378c0.399 3.99 2.13 30.188-24.999 47.21-10.24 6.25-21.544 11.038-32.848 13.698-33.38 7.846-51.201-15.426-51.334-15.692l-5.318-6.383c-38.167-38.3-105.061-38.3-143.494 0-39.497 39.497-39.497 103.863 0 143.493l6.383 5.452c3.192 2.527 23.005 19.948 15.691 51.333-2.527 11.171-7.314 22.475-13.698 32.715-16.889 27.129-43.352 25.268-48.139 24.736l-7.448-0.532c-55.988 0-101.467 45.482-101.467 101.469s45.48 101.469 101.467 101.469l8.38-0.665c4.123-0.399 30.185-2.128 47.208 25.002 6.383 10.24 11.038 21.544 13.698 32.715 7.181 31.385-12.501 48.806-16.623 51.865l-5.584 4.788c-39.497 39.497-39.497 103.863 0 143.493 38.433 38.301 105.327 38.301 143.494 0l5.318-6.383c2.527-3.192 19.816-23.007 51.334-15.692 11.304 2.66 22.606 7.314 32.846 13.698 26.996 16.889 25.266 43.088 24.734 48.141l-0.529 7.314c0 55.988 45.48 101.469 101.468 101.469s101.47-45.482 101.47-101.469l-0.665-8.378c-0.399-3.99-2.129-30.188 25-47.21 10.24-6.25 21.543-11.038 32.846-13.698 33.38-7.846 51.068 15.426 51.334 15.692l5.318 6.383c38.167 38.3 105.061 38.3 143.494 0 39.497-39.497 39.497-103.863 0-143.493l-6.383-5.452c-3.192-2.527-23.005-19.948-15.691-51.333 2.527-11.171 7.314-22.475 13.698-32.715 16.889-27.129 43.352-25.268 48.14-24.736l7.447 0.532c55.988 0 101.468-45.482 101.468-101.469s-45.48-101.469-101.468-101.469l-8.38 0.665c-3.99 0.399-30.318 2.128-47.208-25.002-6.383-10.24-11.038-21.544-13.698-32.715-7.181-31.385 12.501-48.806 16.623-51.865l5.584-4.788c39.497-39.497 39.497-103.863 0-143.493-38.433-38.3-105.327-38.167-143.494 0l-5.318 6.383c-2.527 3.192-19.816 23.14-51.334 15.692-11.304-2.66-22.606-7.314-32.846-13.698-26.996-16.889-25.266-43.088-24.734-48.141l0.529-7.314c0-55.988-45.48-101.469-101.468-101.469zM335.127 219.262c11.703 0 23.938-1.33 36.837-4.256 22.209-5.186 43.487-14.097 63.435-26.331 50.003-31.252 68.221-77.398 72.078-113.97 3.857 36.571 22.075 82.718 72.078 113.837 19.948 12.368 41.36 21.278 63.569 26.464 57.45 13.432 103.199-6.516 131.791-29.656-23.14 28.725-42.957 74.207-29.659 131.79 5.186 22.209 14.099 43.62 26.467 63.435 31.252 50.003 77.263 68.222 113.834 72.079-36.571 3.99-82.715 22.076-113.834 72.079-12.368 19.948-21.281 41.226-26.467 63.435-13.432 57.583 6.519 103.198 29.526 131.79-28.592-23.14-74.341-42.955-131.791-29.656-22.209 5.186-43.488 14.097-63.436 26.331-50.003 31.252-68.221 77.398-72.078 113.97-3.857-36.572-22.075-82.718-72.078-113.837-19.948-12.368-41.359-21.278-63.568-26.464-57.45-13.432-103.201 6.516-131.793 29.656 23.14-28.725 42.957-74.207 29.659-131.79-5.186-22.209-14.099-43.62-26.467-63.435-31.252-50.003-77.263-68.222-113.834-72.079 36.572-3.99 82.716-22.076 113.834-72.079 12.368-19.948 21.281-41.226 26.467-63.435 13.432-57.583-6.519-103.198-29.526-131.79 22.209 17.953 54.66 33.912 94.955 33.912v0z" />
<glyph unicode="&#xe92b;" glyph-name="sign-in" d="M765.477-58.657h-226.469c-31.314 0-56.541 25.377-56.541 56.543s25.376 56.543 56.541 56.543h226.469c62.479 0 113.234 50.755 113.234 113.234v566.020c0 62.479-50.755 113.234-113.234 113.234h-226.469c-31.314 0-56.541 25.377-56.541 56.543s25.376 56.543 56.541 56.543h226.469c124.809 0 226.467-101.509 226.467-226.466v-566.021c0-124.809-101.51-226.467-226.467-226.467v0.297zM539.157 224.352c-14.544 0-28.938 5.491-40.068 16.621-22.112 22.112-22.112 57.878 0 79.991l129.855 129.855-129.855 129.855c-22.112 22.112-22.112 57.878 0 79.991s57.875 22.112 79.988 0l169.778-169.776c22.112-22.112 22.112-57.878 0-79.991l-169.778-169.775c-11.13-11.13-25.524-16.623-40.068-16.623l0.148-0.148zM595.699 394.871h-509.477c-31.314 0-56.542 25.377-56.542 56.543s25.377 56.543 56.542 56.543h509.477c31.314 0 56.544-25.377 56.544-56.543s-25.379-56.543-56.544-56.543z" />
<glyph unicode="&#xe92c;" glyph-name="star" d="M254.454-37.689c-20.196 0-40.39 6.258-57.599 18.773-34.56 25.031-49.067 69.12-35.982 109.796l74.381 231.681-195.27 144.781c-34.702 25.742-48.357 68.836-34.845 109.938s50.205 67.556 93.441 67.556h239.644l73.388 225.848c13.227 40.676 50.772 67.983 93.581 67.983s80.357-27.307 93.584-67.983l73.385-225.848h239.787c43.236 0 79.93-26.453 93.441-67.556s-0.001-84.196-34.846-109.938l-195.413-145.067 74.099-229.831c13.369-41.244-0.711-84.338-35.84-109.796s-80.356-25.458-115.484-0.142l-192.713 139.237-192.71-140.373c-17.351-12.658-37.69-18.917-58.028-18.917v-0.142zM128.873 536.32l176.639-130.987c33.849-25.173 47.93-68.979 34.988-109.228l-67.129-209.065 173.652 126.578c34.56 25.173 80.926 25.316 115.628 0.284l173.652-125.44-66.985 207.504c-12.942 40.107 0.994 84.052 34.985 109.225l176.784 131.271h-216.604c-42.809 0-80.357 27.307-93.584 67.982l-65.991 203.236-66.132-203.236c-13.227-40.676-50.775-67.982-93.584-67.982l-216.319-0.142z" />
<glyph unicode="&#xe92d;" glyph-name="stats" d="M188.443-6.282h-72.478c-63.967 0-115.965 51.998-115.965 115.965v275.282c0 63.967 51.998 115.965 115.965 115.965h72.478c63.967 0 115.965-51.998 115.965-115.965v-275.282c0-63.967-51.998-115.965-115.965-115.965v0zM115.965 399.593c-7.846 0-14.496-6.649-14.496-14.496v-275.282c0-7.846 6.649-14.497 14.496-14.497h72.478c7.846 0 14.496 6.651 14.496 14.497v275.282c0 7.846-6.649 14.496-14.496 14.496h-72.478zM543.518-6.282h-72.478c-63.967 0-115.965 51.998-115.965 115.965v478.22c0 63.967 51.998 115.965 115.965 115.965h72.478c63.967 0 115.965-51.998 115.965-115.965v-478.22c0-63.967-51.998-115.965-115.965-115.965zM471.040 602.398c-7.846 0-14.496-6.649-14.496-14.496v-478.22c0-7.846 6.649-14.496 14.496-14.496h72.478c7.846 0 14.496 6.649 14.496 14.496v478.22c0 7.846-6.649 14.496-14.496 14.496h-72.478zM898.593-6.282h-72.478c-63.967 0-115.965 51.998-115.965 115.965v681.159c0 63.967 51.998 115.964 115.965 115.964h72.478c63.967 0 115.965-51.998 115.965-115.964v-681.159c0-63.967-51.998-115.965-115.965-115.965zM826.115 805.336c-7.846 0-14.496-6.649-14.496-14.495v-681.159c0-7.846 6.649-14.496 14.496-14.496h72.478c7.846 0 14.496 6.649 14.496 14.496v681.159c0 7.846-6.649 14.495-14.496 14.495h-72.478z" />
<glyph unicode="&#xe92e;" glyph-name="tag" d="M495.881-60.094c-52.682 0-105.228 20.077-145.38 60.094l-290.358 290.357c-80.168 80.168-80.169 210.46-0.135 290.629l363.116 363.923c9.701 9.701 22.771 15.092 36.379 15.092h459.722c55.377 0 100.378-45.003 100.378-100.38v-459.723c0-13.608-5.389-26.677-15.091-36.378l-363.384-363.387c-40.017-40.152-92.7-60.093-145.382-60.093l0.135-0.135zM480.926 857.329l-348.159-348.832c-40.017-40.152-40.017-105.364 0-145.381l290.358-290.359c40.017-40.017 105.228-40.017 145.38 0l348.295 348.429v438.569l-435.874-2.426zM726.283 579.234c42.565 0 77.069 34.505 77.069 77.069s-34.505 77.068-77.069 77.068-77.071-34.505-77.071-77.068c0-42.565 34.506-77.069 77.071-77.069z" />
<glyph unicode="&#xe92f;" glyph-name="time" d="M507.212-54.425c-279.672 0-507.212 227.541-507.212 507.212s227.541 507.212 507.212 507.212c279.672 0 507.212-227.541 507.212-507.212s-227.541-507.212-507.212-507.212zM507.212 858.664c-223.817 0-405.876-182.059-405.876-405.876s182.059-405.876 405.876-405.876c223.817 0 405.876 182.059 405.876 405.876s-182.059 405.876-405.876 405.876zM507.212 402.118c-28.060 0-50.667 22.742-50.667 50.669v202.938c0 28.060 22.739 50.667 50.667 50.667s50.669-22.739 50.669-50.667v-202.938c0-28.060-22.742-50.669-50.669-50.669zM659.351 402.118h-152.138c-28.060 0-50.667 22.742-50.667 50.669s22.739 50.667 50.667 50.667h152.138c28.060 0 50.667-22.739 50.667-50.667s-22.739-50.669-50.667-50.669z" />
<glyph unicode="&#xe930;" glyph-name="trash" horiz-adv-x="918" d="M659.348-54.425h-405.876c-111.842 0-202.938 90.963-202.938 202.938v456.544c0 28.060 22.741 50.668 50.668 50.668h710.15c28.060 0 50.668-22.741 50.668-50.668v-456.544c0-111.842-90.963-202.938-202.938-202.938h0.266zM152.136 554.257v-405.876c0-55.988 45.482-101.469 101.469-101.469h405.876c55.988 0 101.469 45.482 101.469 101.469v405.876h-608.815zM608.549 757.195c-28.060 0-50.668 22.741-50.668 50.668v36.172c0 7.846-6.649 14.496-14.496 14.496h-173.814c-7.846 0-14.496-6.649-14.496-14.496v-36.172c0-28.060-22.741-50.668-50.668-50.668s-50.668 22.741-50.668 50.668v36.172c0 63.967 51.998 115.965 115.965 115.965h173.814c63.967 0 115.965-51.998 115.965-115.965v-36.172c0-28.060-22.741-50.668-50.668-50.668h-0.266zM456.41 148.513c-28.060 0-50.668 22.741-50.668 50.668v253.606c0 28.060 22.741 50.668 50.668 50.668s50.668-22.741 50.668-50.668v-253.606c0-28.060-22.741-50.668-50.668-50.668zM304.273 97.712c-28.060 0-50.668 22.741-50.668 50.668v253.606c0 28.060 22.741 50.668 50.668 50.668s50.668-22.741 50.668-50.668v-253.606c0-28.060-22.741-50.668-50.668-50.668zM608.547 97.712c-28.060 0-50.667 22.741-50.667 50.668v253.606c0 28.060 22.739 50.668 50.667 50.668s50.668-22.741 50.668-50.668v-253.606c0-28.060-22.741-50.668-50.668-50.668zM862.288 706.527h-811.62c-28.060 0-50.668 22.741-50.668 50.668s22.741 50.668 50.668 50.668h811.62c28.060 0 50.668-22.741 50.668-50.668s-22.741-50.668-50.668-50.668z" />
<glyph unicode="&#xe931;" glyph-name="type" d="M507.045-47.814c-34.849 0-62.926 28.243-62.926 62.926v881.961c0 34.849 28.243 62.926 62.926 62.926s62.926-28.243 62.926-62.926v-881.961c0-34.849-28.243-62.926-62.926-62.926zM884.934 834.147h-755.943c-34.849 0-62.926 28.243-62.926 62.926s28.243 62.926 62.926 62.926h755.943c34.849 0 62.926-28.243 62.926-62.926s-28.243-62.926-62.926-62.926zM884.934 708.129c-34.849 0-62.926 28.243-62.926 62.926v126.018c0 34.849 28.243 62.926 62.926 62.926s62.926-28.243 62.926-62.926v-126.018c0-34.849-28.243-62.926-62.926-62.926zM128.991 708.129c-34.849 0-62.926 28.243-62.926 62.926v126.018c0 34.849 28.243 62.926 62.926 62.926s62.926-28.243 62.926-62.926v-126.018c0-34.849-28.243-62.926-62.926-62.926zM569.972-47.814h-126.018c-34.849 0-62.926 28.243-62.926 62.926s28.243 62.926 62.926 62.926h126.018c34.849 0 62.926-28.243 62.926-62.926s-28.243-62.926-62.926-62.926z" />
<glyph unicode="&#xe932;" glyph-name="update" horiz-adv-x="825" d="M456.544-54.691c-13.033 0-25.932 4.921-35.906 14.895-19.815 19.815-19.815 51.865 0 71.68l167.032 167.032-116.364 116.364c-19.815 19.815-19.815 51.865 0 71.68s51.865 19.815 71.68 0l152.137-152.137c19.815-19.815 19.815-51.865 0-71.68l-202.938-202.938c-9.841-9.974-22.874-14.895-35.906-14.895h0.266zM405.743 148.247c-223.817 0-405.743 182.059-405.743 405.876s182.059 405.876 405.743 405.876c223.684 0 405.876-182.059 405.876-405.876 0-28.060-22.741-50.668-50.668-50.668s-50.668 22.741-50.668 50.668c0 167.83-136.578 304.407-304.407 304.407s-304.407-136.578-304.407-304.407c0-167.83 136.578-304.407 304.407-304.407 28.060 0 50.669-22.741 50.669-50.668s-22.742-50.668-50.669-50.668l-0.133-0.133z" />
<glyph unicode="&#xe933;" glyph-name="upload" d="M659.35 653.182c-13.033 0-25.932 4.921-35.906 14.895l-116.364 116.364-116.364-116.364c-19.815-19.815-51.866-19.815-71.681 0s-19.815 51.865 0 71.68l152.138 152.138c19.815 19.815 51.998 19.948 71.813 0l152.137-152.138c19.815-19.815 19.815-51.865 0-71.68-9.974-9.841-22.874-14.895-35.906-14.895h0.133zM811.62-6.167h-608.682c-111.842 0-202.938 90.962-202.938 202.937 0 28.060 22.742 50.668 50.669 50.668s50.667-22.741 50.667-50.668c0-55.988 45.482-101.469 101.469-101.469h608.682c55.988 0 101.469 45.482 101.469 101.469 0 28.060 22.742 50.668 50.669 50.668s50.667-22.741 50.667-50.668c0-111.842-90.963-202.937-202.938-202.937h0.266zM507.746 247.438c-28.060 0-50.669 22.741-50.669 50.668v456.544c0 28.061 22.742 50.668 50.669 50.668s50.667-22.741 50.667-50.668v-456.544c0-28.060-22.739-50.668-50.667-50.668z" />
<glyph unicode="&#xe934;" glyph-name="user" d="M963.702 29.623c16.889 0 33.38 8.378 42.955 23.672 14.895 23.672 7.846 55.057-15.825 69.951l-217.434 136.977c-40.96 29.124-96.948 32.848-147.35 8.644-57.184-27.528-193.629-26.73-247.356 1.596-45.482 23.938-100.272 21.809-142.695-5.587l-213.444-142.428c-23.273-15.559-29.523-47.079-14.097-70.351 15.559-23.273 46.944-29.522 70.35-14.095l212.78 141.897c11.304 7.314 26.464 7.713 39.896 0.665 81.787-42.955 252.542-44.551 338.585-3.192 16.756 8.112 34.311 7.447 47.077-1.596l219.695-138.574c8.378-5.319 17.82-7.845 26.996-7.845l-0.133 0.266zM509.818 359.697c139.902 0 253.606 113.838 253.606 253.608s-113.837 253.605-253.606 253.605c-139.769 0-253.606-113.836-253.606-253.605s113.837-253.608 253.606-253.608zM509.818 765.573c83.915 0 152.137-68.221 152.137-152.136s-68.222-152.138-152.137-152.138c-83.915 0-152.137 68.224-152.137 152.138s68.222 152.136 152.137 152.136z" />
<glyph unicode="&#xe935;" glyph-name="write" d="M642.034-31.211h-427.976c-117.971 0-214.058 95.947-214.058 214.058v428.116c0 117.97 95.947 214.058 214.058 214.058h214.058c29.598 0 53.444-23.987 53.444-53.444s-23.987-53.444-53.444-53.444h-214.058c-59.055 0-107.029-47.974-107.029-107.029v-428.116c0-59.055 47.974-107.029 107.029-107.029h427.976c59.055 0 107.029 47.974 107.029 107.029 0 29.598 23.987 53.444 53.444 53.444s53.444-23.987 53.444-53.444c0-117.97-95.947-214.058-214.058-214.058l0.14-0.14zM387.858 228.717c-19.218 0-37.874 7.575-51.761 21.602-17.675 17.815-25.109 43.064-19.638 67.612 46.711 213.357 63.544 230.33 75.888 242.674l339.884 339.884c41.942 41.942 110.115 41.942 152.197 0l101.979-101.979c20.34-20.199 31.421-47.272 31.421-76.028s-11.222-55.829-31.421-76.028l-339.884-339.884c-12.344-12.344-29.037-29.177-242.814-76.028-5.33-1.122-10.521-1.683-15.851-1.683v-0.14zM420.962 295.066c0 0 0 0 0-0.14 0 0 0 0 0 0.14zM471.882 488.785c-6.873-15.009-20.901-63.264-39.277-142.098 88.373 20.48 129.473 33.666 142.098 39.277l335.956 335.956-101.979 102.681-336.798-335.816zM838.137 520.206c-13.747 0-27.353 5.19-37.874 15.711l-178.428 178.428c-20.901 20.901-20.901 54.707 0 75.608s54.707 20.901 75.608 0l178.428-178.428c20.901-20.901 20.901-54.707 0-75.608-10.38-10.38-24.127-15.711-37.874-15.711h0.14z" />
</font>
</defs>
</svg>
